HIERARCHY
ROOT Hips
{
	OFFSET -21.947001 39.810204 44.525997
	CHANNELS 6 Xposition Yposition Zposition Zrotation Xrotation Yrotation
	JOINT Chest
	{
		OFFSET -0.201599 0.334099 6.453201
		CHANNELS 6 Xposition Yposition Zposition Zrotation Xrotation Yrotation
		JOINT Chest2
		{
			OFFSET 0.000000 0.000000 3.568001
			CHANNELS 6 Xposition Yposition Zposition Zrotation Xrotation Yrotation
			JOINT Neck
			{
				OFFSET 0.000000 0.000000 8.296402
				CHANNELS 6 Xposition Yposition Zposition Zrotation Xrotation Yrotation
				JOINT Head
				{
					OFFSET 0.000000 0.000000 2.173901
					CHANNELS 6 Xposition Yposition Zposition Zrotation Xrotation Yrotation
					End Site
					{
						OFFSET 0.000000 0.000000 7.891998
					}
				}
			}
			JOINT LeftCollar
			{
				OFFSET 1.927601 0.221401 6.049000
				CHANNELS 6 Xposition Yposition Zposition Zrotation Xrotation Yrotation
				JOINT LeftShoulder
				{
					OFFSET 4.959700 0.000000 0.000000
					CHANNELS 6 Xposition Yposition Zposition Zrotation Xrotation Yrotation
					JOINT LeftElbow
					{
						OFFSET 0.000000 0.000000 -8.654202
						CHANNELS 6 Xposition Yposition Zposition Zrotation Xrotation Yrotation
						JOINT LeftWrist
						{
							OFFSET 0.000000 0.000000 -13.864101
							CHANNELS 6 Xposition Yposition Zposition Zrotation Xrotation Yrotation
							End Site
							{
								OFFSET 0.000000 0.000000 -2.173901
							}
						}
					}
				}
			}
			JOINT RightCollar
			{
				OFFSET -3.155701 -0.764999 6.687801
				CHANNELS 6 Xposition Yposition Zposition Zrotation Xrotation Yrotation
				JOINT RightShoulder
				{
					OFFSET -3.592899 0.000000 0.000000
					CHANNELS 6 Xposition Yposition Zposition Zrotation Xrotation Yrotation
					JOINT RightElbow
					{
						OFFSET 0.000000 0.000000 -10.352398
						CHANNELS 6 Xposition Yposition Zposition Zrotation Xrotation Yrotation
						JOINT RightWrist
						{
							OFFSET 0.000000 0.000000 -12.750301
							CHANNELS 6 Xposition Yposition Zposition Zrotation Xrotation Yrotation
							End Site
							{
								OFFSET 0.000000 0.000000 -2.173901
							}
						}
					}
				}
			}
		}
	}
	JOINT LeftHip
	{
		OFFSET 2.460600 -0.518101 -2.735500
		CHANNELS 6 Xposition Yposition Zposition Zrotation Xrotation Yrotation
		JOINT LeftKnee
		{
			OFFSET 0.000000 -0.000004 -17.005899
			CHANNELS 6 Xposition Yposition Zposition Zrotation Xrotation Yrotation
			JOINT LeftAnkle
			{
				OFFSET 0.000000 0.000000 -19.194401
				CHANNELS 6 Xposition Yposition Zposition Zrotation Xrotation Yrotation
				End Site
				{
					OFFSET 0.000000 -8.134600 0.000000
				}
			}
		}
	}
	JOINT RightHip
	{
		OFFSET -3.115499 -0.679600 -2.320301
		CHANNELS 6 Xposition Yposition Zposition Zrotation Xrotation Yrotation
		JOINT RightKnee
		{
			OFFSET 0.000000 -0.000004 -17.680401
			CHANNELS 6 Xposition Yposition Zposition Zrotation Xrotation Yrotation
			JOINT RightAnkle
			{
				OFFSET 0.000000 0.000000 -16.993797
				CHANNELS 6 Xposition Yposition Zposition Zrotation Xrotation Yrotation
				End Site
				{
					OFFSET 0.000000 -8.842300 0.000000
				}
			}
		}
	}
}
MOTION
Frames: 5
Frame Time: 0.041667
-19.510401 34.000305 18.243490 2523.031882 -0.291795 -4.589986 -0.201600 0.334094 6.453202 -4.539152 13.878005 6.434825 0.000002 0.000002 3.567998 -6.619210 -5.868222 -2.347928 0.000004 -0.000004 8.296395 183.371892 -172.090427 178.352317 0.000002 0.000002 2.173908 2.529172 1.440761 0.523259 1.927604 0.221398 6.048993 -12.124366 -6.797979 0.506974 4.959702 -0.000007 0.000000 152.042347 196.246703 151.624694 0.000000 -0.000002 -8.654202 15.691147 -47.972254 32.121147 -0.000002 -0.000001 -13.864100 4234.066833 -166.903896 245.185486 -3.155696 -0.765004 6.687800 37.325744 -0.217006 1.620951 -3.592901 0.000000 -0.000002 -136.132364 184.953586 211.937191 0.000000 -0.000005 -10.352394 -120.406154 -110.729558 -114.202798 -0.000002 0.000001 -12.750300 -126.814224 182.554277 -121.061333 2.460596 -0.518105 -2.735500 108.830759 -24.207802 108.975791 -0.000001 -0.000003 -17.005898 -348.211240 181.407980 -54.468621 -0.000001 0.000004 -19.194405 598.133435 169.106482 232.346370 -3.115491 -0.679596 -2.320303 -134.328524 -19.556618 -101.107912 -0.000004 -0.000013 -17.680397 -773.119767 218.364522 -334.493434 0.000004 0.000000 -16.993795 980.685337 61.829352 -405.461503
-19.489199 33.976303 18.224892 2522.917353 -0.135050 -4.512340 -0.201600 0.334099 6.453206 -4.400381 13.869488 6.339073 -0.000003 0.000008 3.567997 -6.688021 -5.867711 -2.365731 0.000002 -0.000000 8.296398 183.397683 -172.183523 178.401413 0.000001 0.000003 2.173897 2.661314 1.421373 0.507787 1.927600 0.221403 6.048995 -12.125273 -6.906598 0.387403 4.959698 0.000004 0.000004 152.053221 196.102395 151.575476 -0.000000 -0.000004 -8.654201 15.152047 -48.172993 31.962806 -0.000001 -0.000007 -13.864101 4234.553361 -167.025569 245.211386 -3.155700 -0.765000 6.687798 37.375219 -0.190599 1.550227 -3.592901 -0.000004 0.000000 -136.062382 184.818020 212.013949 -0.000007 -0.000002 -10.352396 -120.001178 -110.776912 -113.766616 -0.000006 -0.000011 -12.750302 -126.882689 182.529128 -121.105101 2.460599 -0.518106 -2.735502 109.142468 -24.147978 109.124553 -0.000001 -0.000005 -17.005899 -348.148293 181.373201 -54.461237 -0.000003 0.000004 -19.194405 598.058904 169.000054 232.100210 -3.115492 -0.679595 -2.320301 -134.294046 -19.584162 -101.193760 -0.000005 -0.000004 -17.680401 -773.259158 218.324702 -334.537857 -0.000002 -0.000002 -16.993792 980.629930 61.805125 -405.254357
-19.461102 33.950504 18.205496 2522.759111 0.042900 -4.444749 -0.201598 0.334102 6.453200 -4.215481 13.853963 6.233622 0.000005 0.000000 3.567997 -6.756985 -5.881639 -2.384709 0.000004 -0.000006 8.296396 183.372151 -172.340385 178.585432 0.000000 0.000001 2.173910 2.850694 1.377472 0.368633 1.927602 0.221401 6.048997 -12.253961 -6.986050 0.440788 4.959700 -0.000004 0.000002 151.944593 195.773084 151.251698 -0.000000 -0.000001 -8.654196 14.621982 -48.447519 31.740661 0.000003 -0.000006 -13.864099 4235.210370 -167.202826 245.332718 -3.155700 -0.765004 6.687795 37.416913 0.012293 1.288492 -3.592903 -0.000002 0.000003 -135.903197 184.566041 212.356059 0.000000 -0.000005 -10.352390 -119.496960 -110.858485 -113.105009 -0.000007 -0.000004 -12.750301 -126.969255 182.563689 -121.117231 2.460601 -0.518106 -2.735502 109.486259 -24.094998 109.292767 0.000002 -0.000001 -17.005898 -348.070156 181.311879 -54.408481 -0.000003 0.000005 -19.194403 598.001859 168.916671 231.780940 -3.115493 -0.679602 -2.320304 -134.274484 -19.544754 -101.309382 -0.000003 -0.000004 -17.680401 -773.381883 218.312380 -334.610421 -0.000000 -0.000003 -16.993790 980.529608 61.792797 -404.983581
-19.426003 33.924702 18.189095 2522.573330 0.201990 -4.435250 -0.201600 0.334105 6.453204 -4.030602 13.913053 6.220602 0.000002 0.000011 3.567995 -6.854230 -5.922018 -2.419055 -0.000001 0.000005 8.296396 183.360991 -172.503107 178.702652 0.000001 0.000001 2.173897 3.061118 1.387318 0.270009 1.927602 0.221403 6.048997 -12.438479 -7.065731 0.484096 4.959704 -0.000001 0.000007 151.816049 195.332018 150.831559 0.000000 -0.000005 -8.654196 14.047723 -48.793956 31.481575 0.000003 -0.000001 -13.864102 4235.900602 -167.405724 245.440170 -3.155707 -0.765000 6.687800 37.484970 0.240193 0.970650 -3.592901 -0.000006 -0.000001 -135.715968 184.262275 212.788629 -0.000004 -0.000000 -10.352396 -119.005528 -110.876694 -112.410331 -0.000008 -0.000005 -12.750299 -126.904587 182.593701 -120.963743 2.460600 -0.518103 -2.735504 109.796534 -24.115643 109.400308 -0.000002 -0.000006 -17.005896 -347.936475 181.142846 -54.336614 -0.000002 0.000006 -19.194401 597.901318 168.847577 231.386127 -3.115492 -0.679595 -2.320301 -134.287653 -19.422445 -101.446396 -0.000003 -0.000009 -17.680405 -773.413465 218.342460 -334.706453 -0.000006 -0.000007 -16.993793 980.383278 61.785618 -404.656907
-19.382996 33.898506 18.175997 2522.396073 0.409043 -4.485354 -0.201598 0.334096 6.453198 -3.860457 13.928421 6.244847 0.000003 0.000006 3.567997 -6.949145 -5.942399 -2.444332 -0.000003 -0.000004 8.296397 183.294697 -172.708409 178.865251 -0.000000 0.000004 2.173901 3.268465 1.311498 0.104556 1.927598 0.221398 6.048992 -12.645367 -7.170666 0.433266 4.959702 0.000002 -0.000001 151.733991 194.833468 150.445613 -0.000003 -0.000000 -8.654200 13.450684 -49.257135 31.288304 -0.000004 -0.000005 -13.864101 4236.560234 -167.573227 245.622181 -3.155710 -0.765004 6.687800 37.543292 0.452467 0.751665 -3.592901 0.000000 0.000003 -135.633555 184.020651 213.154153 -0.000004 -0.000003 -10.352392 -118.326839 -110.829696 -111.641368 -0.000008 -0.000010 -12.750298 -126.711675 182.652495 -120.682776 2.460601 -0.518098 -2.735501 110.100853 -23.844250 109.517439 -0.000005 -0.000005 -17.005899 -347.911231 181.174019 -54.244095 -0.000008 0.000003 -19.194405 597.928639 168.788181 230.955853 -3.115496 -0.679603 -2.320302 -134.363181 -19.377957 -101.633563 -0.000005 -0.000004 -17.680399 -773.484773 218.397744 -334.765057 0.000004 -0.000004 -16.993788 980.217605 61.749199 -404.302065
